Coordinates
version=1
nRows=11
nColumns=33
inDegrees=yes

Units are S.I. units (second, meters, Newtons, ...)
Angles are in degrees.

endheader
time	ground_thorax_rot_x	ground_thorax_rot_y	ground_thorax_rot_z	ground_thorax_tx	ground_thorax_ty	ground_thorax_tz	clav_prot_r	clav_elev_r	scapula_abduction_r	scapula_elevation_r	scapula_upward_rot_r	scapula_winging_r	shoulder_elv_r	plane_of_elev_r	axial_rot_r	elbow_flexion_r	pro_sup_r	wrist_flex_r	wrist_dev_r	clav_prot_l	clav_elev_l	scapula_abduction_l	scapula_elevation_l	scapula_upward_rot_l	scapula_winging_l	shoulder_elv_l	plane_of_elev_l	axial_rot_l	elbow_flexion_l	pro_sup_l	wrist_flex_l	wrist_dev_l	
11.1300	90.000000	-90.000000	-90.000000	35.936524	778.849230	-44.548805	-45.000000	-4.242952	-42.395471	11.709220	-45.000000	-2636.358228	-1691.833412	30.707385	-45.377392	1080.577900	168.529819	2.959086	11.734801	20.826560	45.000000	-45.000000	-45.000000	2.701003	-4281.037390	-2576.018205	139.726381	-180.000000	1068.076850	416.745693	6.167786	-7.977804	
11.1400	90.000000	-90.000000	-90.000000	35.608321	778.396780	-44.443744	-45.000000	-4.513732	-42.344737	11.643914	-45.000000	-2636.436596	-1691.796090	30.811090	-45.161259	1080.577751	168.707950	3.086258	11.693814	20.771932	45.000000	-45.000000	-45.000000	2.813748	-4281.029077	-2575.941405	139.690202	-180.000000	1068.080902	416.742123	6.198946	-7.966561	
11.1500	90.000000	-90.000000	-90.000000	35.244356	777.964814	-44.341775	-45.000000	-4.878584	-42.284725	11.566278	-45.000000	-2636.502573	-1691.753510	30.911147	-44.858216	1080.561331	168.896972	3.198687	11.694678	20.737862	45.000000	-45.000000	-45.000000	2.880983	-4281.020142	-2575.821167	139.663084	-180.000000	1068.131260	416.728555	6.341460	-7.862637	
11.1600	90.000000	-90.000000	-90.000000	34.800495	777.570162	-44.248890	-45.000000	-5.126898	-42.221774	11.478232	-45.000000	-2636.558898	-1691.691430	30.975854	-44.650917	1080.566003	169.048778	3.297810	11.679123	20.662964	45.000000	-45.000000	-45.000000	2.979709	-4281.016943	-2575.731122	139.630720	-180.000000	1068.148819	416.704439	6.400453	-7.830070	
11.1700	90.000000	-90.000000	-90.000000	34.274090	777.217472	-44.164172	-45.000000	-5.324811	-42.155327	11.381078	-45.000000	-2636.611776	-1691.614042	31.029436	-44.473409	1080.578918	169.176908	3.396486	11.645326	20.569107	45.000000	-45.000000	-45.000000	3.090463	-4281.022971	-2575.652934	139.595177	-180.000000	1068.142288	416.681447	6.395592	-7.846015	
11.1800	90.000000	-90.000000	-90.000000	33.657401	776.910500	-44.087099	-45.000000	-5.495401	-42.084155	11.277042	-45.000000	-2636.644426	-1691.525534	31.061717	-44.296041	1080.594937	169.292151	3.480358	11.625156	20.460511	45.000000	-45.000000	-45.000000	3.202097	-4281.033376	-2575.574764	139.557806	-180.000000	1068.150181	416.661626	6.408813	-7.857978	
11.1900	90.000000	-90.000000	-90.000000	32.954096	776.645683	-44.014691	-45.000000	-5.630312	-42.013063	11.176415	-45.000000	-2636.673961	-1691.429148	31.100030	-44.118544	1080.613782	169.391492	3.577188	11.578528	20.342563	45.000000	-45.000000	-45.000000	3.322614	-4281.057169	-2575.505114	139.516706	-180.000000	1068.136062	416.668474	6.351028	-7.921622	
11.2000	90.000000	-90.000000	-90.000000	32.173428	776.411433	-43.940262	-45.000000	-5.767057	-41.942045	11.087807	-45.000000	-2636.675910	-1691.336683	31.131661	-43.894686	1080.625393	169.487244	3.668536	11.557291	20.225374	45.000000	-45.000000	-45.000000	3.434235	-4281.087888	-2575.424835	139.474004	-180.000000	1068.158031	416.704656	6.352591	-7.952180	
11.2100	90.000000	-90.000000	-90.000000	31.323715	776.189724	-43.853974	-45.000000	-5.855864	-41.877415	11.023259	-45.000000	-2636.669235	-1691.250222	31.177633	-43.659241	1080.635757	169.554307	3.787436	11.511497	20.105596	45.000000	-45.000000	-45.000000	3.552190	-4281.138169	-2575.350380	139.428580	-180.000000	1068.160414	416.793520	6.276680	-8.034635	
11.2200	90.000000	-90.000000	-90.000000	30.415738	775.945479	-43.732526	-45.000000	-5.902738	-41.821789	11.002487	-45.000000	-2636.618729	-1691.184502	31.215053	-43.380555	1080.638383	169.569914	3.914282	11.510721	19.988110	45.000000	-45.000000	-45.000000	3.659197	-4281.204625	-2575.264287	139.383040	-180.000000	1068.202588	416.928850	6.270557	-8.075095	
11.2300	90.000000	-90.000000	-90.000000	29.458210	775.638311	-43.546426	-45.000000	-5.852339	-41.783992	11.047767	-45.000000	-2636.538816	-1691.144633	31.267899	-43.083010	1080.638693	169.474087	4.092353	11.510928	19.873402	45.000000	-45.000000	-45.000000	3.764234	-4281.303987	-2575.180008	139.337345	-180.000000	1068.224601	417.129092	6.191300	-8.158656	
